<?xml version="1.0" encoding="UTF-8" standalone="no"?>
<!DOCTYPE svg PUBLIC "-//W3C//DTD SVG 1.1//EN" "http://www.w3.org/Graphics/SVG/1.1/DTD/svg11.dtd">
<svg width="100%" height="100%" viewBox="0 0 562 485" version="1.1" xmlns="http://www.w3.org/2000/svg" xmlns:xlink="http://www.w3.org/1999/xlink" xml:space="preserve" xmlns:serif="http://www.serif.com/" style="fill-rule:evenodd;clip-rule:evenodd;stroke-linejoin:round;stroke-miterlimit:1.41421;">
    <g id="Artboard1" transform="matrix(0.983659,0,0,0.952817,-834.719,-784.89)">
        <rect x="848.586" y="823.757" width="570.677" height="508.634" style="fill:none;"/>
        <g transform="matrix(1.01661,0,0,1.04952,511.166,-12.6932)">
            <path d="M705.58,909.025C683.722,906.046 661.444,906.046 639.586,909.025L631.104,969.962C611.247,975.197 593.018,984.123 577.745,996.091L511.284,971.853C497.313,986.418 486.174,1002.78 478.287,1020.33L536.266,1057.03C531.683,1074.23 531.683,1092.08 536.266,1109.28L478.287,1145.98C486.174,1163.53 497.313,1179.89 511.284,1194.46L577.745,1170.22C593.018,1182.19 611.247,1191.11 631.104,1196.35L639.586,1257.29C661.444,1260.26 683.722,1260.26 705.58,1257.29L714.062,1196.35C733.919,1191.11 752.148,1182.19 767.421,1170.22L833.882,1194.46C847.853,1179.89 858.992,1163.53 866.879,1145.98L808.9,1109.28C813.483,1092.08 813.483,1074.23 808.9,1057.03L866.879,1020.33C858.992,1002.78 847.853,986.418 833.882,971.853L767.421,996.091C752.148,984.123 733.919,975.197 714.062,969.962L705.58,909.025ZM672.583,1005.04C723.415,1005.04 764.685,1040.04 764.685,1083.15C764.685,1126.27 723.415,1161.27 672.583,1161.27C621.751,1161.27 580.481,1126.27 580.481,1083.15C580.481,1040.04 621.751,1005.04 672.583,1005.04Z" style="fill:rgb(15,8,8);"/>
        </g>
        <g transform="matrix(1.01661,0,0,-1.09222,549.436,2771.97)">
            <path d="M658.728,1739.61L297.683,1739.61L301.965,1485.63L610.046,1485.63L658.728,1739.61Z" style="fill:white;"/>
        </g>
        <g transform="matrix(1.01661,0,0,1.04952,-25.0152,-46.471)">
            <path d="M945.946,1012.89L977.587,862.892L1038.23,862.892L1008.94,999.709C1006.98,1008.69 1005.47,1016.7 1004.39,1023.73C1003.32,1030.76 1002.78,1036.33 1002.78,1040.43C1002.78,1052.93 1006.4,1062.8 1013.62,1070.02C1020.85,1077.25 1030.81,1080.86 1043.51,1080.86C1060.5,1080.86 1074.07,1075.64 1084.23,1065.19C1094.38,1054.74 1101.81,1038.38 1106.49,1016.12L1139.01,862.892L1200.24,862.892L1167.14,1019.05C1166.94,1020.02 1166.65,1021.49 1166.26,1023.44C1163.33,1037.11 1161.86,1047.85 1161.86,1055.67C1161.86,1063.87 1164.06,1070.31 1168.46,1075C1172.85,1079.69 1179.05,1082.03 1187.06,1082.03C1194.87,1082.03 1201.81,1079.93 1207.86,1075.73C1213.91,1071.54 1219.58,1064.85 1224.85,1055.67C1226.61,1052.35 1228.86,1047.56 1231.59,1041.31C1236.47,1029.59 1241.45,1023.73 1246.53,1023.73C1248.68,1023.73 1250.29,1024.46 1251.37,1025.93C1252.44,1027.39 1252.98,1029.69 1252.98,1032.81C1252.98,1038.28 1251.32,1046.63 1248,1057.86C1244.68,1069.09 1240.77,1078.91 1236.28,1087.31C1228.27,1101.37 1218.94,1111.92 1208.3,1118.95C1197.65,1125.98 1185.6,1129.49 1172.12,1129.49C1155.71,1129.49 1143.07,1124.12 1134.18,1113.38C1125.29,1102.64 1120.65,1087.4 1120.26,1067.68C1112.06,1087.99 1101.37,1103.37 1088.18,1113.82C1075,1124.27 1059.72,1129.49 1042.33,1129.49C1023,1129.49 1007.71,1123.83 996.484,1112.5C985.253,1101.17 978.564,1084.77 976.415,1063.28C971.923,1087.5 967.236,1118.26 962.353,1155.57C954.736,1215.33 941.65,1245.22 923.095,1245.22C913.915,1245.22 906.786,1242.63 901.708,1237.45C896.63,1232.28 894.091,1225 894.091,1215.63C894.091,1205.47 900.829,1177.88 914.306,1132.86C927.782,1087.84 938.329,1047.85 945.946,1012.89Z" style="fill-rule:nonzero;"/>
        </g>
    </g>
</svg>
